<?xml version="1.0" encoding="UTF-8" standalone="no"?>
<svg
   xmlns:dc="http://purl.org/dc/elements/1.1/"
   xmlns:cc="http://creativecommons.org/ns#"
   xmlns:rdf="http://www.w3.org/1999/02/22-rdf-syntax-ns#"
   xmlns:svg="http://www.w3.org/2000/svg"
   xmlns="http://www.w3.org/2000/svg"
   xmlns:sodipodi="http://sodipodi.sourceforge.net/DTD/sodipodi-0.dtd"
   xmlns:inkscape="http://www.inkscape.org/namespaces/inkscape"
   sodipodi:docname="FeCEAP-logoAlef2.svg"
   inkscape:version="1.0 (1.0+r73+1)"
   id="svg8"
   version="1.1"
   viewBox="0 0 209.99895 81.741997"
   height="81.741997mm"
   width="209.99895mm">
  <defs
     id="defs2">
    <rect
       id="rect929"
       height="11.108583"
       width="52.05798"
       y="37.680309"
       x="2.5406809" />
    <rect
       id="rect841"
       height="65.89991"
       width="115.48024"
       y="89.589584"
       x="33.686321" />
    <rect
       id="rect835"
       height="64.139816"
       width="92.497818"
       y="52.475178"
       x="29.811995" />
  </defs>
  <sodipodi:namedview
     fit-margin-bottom="0"
     fit-margin-right="0"
     fit-margin-left="0"
     fit-margin-top="0"
     inkscape:window-maximized="0"
     inkscape:window-y="0"
     inkscape:window-x="0"
     inkscape:window-height="836"
     inkscape:window-width="1600"
     showgrid="false"
     inkscape:document-rotation="0"
     inkscape:current-layer="layer1"
     inkscape:document-units="mm"
     inkscape:cy="560"
     inkscape:cx="-87.965559"
     inkscape:zoom="0.35"
     inkscape:pageshadow="2"
     inkscape:pageopacity="0.0"
     borderopacity="1.0"
     bordercolor="#666666"
     pagecolor="#ffffff"
     id="base" />
  <metadata
     id="metadata5">
    <rdf:RDF>
      <cc:Work
         rdf:about="">
        <dc:format>image/svg+xml</dc:format>
        <dc:type
           rdf:resource="http://purl.org/dc/dcmitype/StillImage" />
        <dc:title></dc:title>
      </cc:Work>
    </rdf:RDF>
  </metadata>
  <g
     style="display:inline"
     id="layer1"
     inkscape:groupmode="layer"
     inkscape:label="Layer 1">
    <text
       style="font-style:normal;font-weight:normal;font-size:10.5833px;line-height:1.25;font-family:sans-serif;white-space:pre;shape-inside:url(#rect929);fill:#000000;fill-opacity:1;stroke:none;"
       id="text927"
       xml:space="preserve" />
    <g
       transform="matrix(0.7114866,0,0,0.7114866,60.586768,-129.56952)"
       id="g1728">
      <g
         id="g1657"
         transform="translate(0.89006719)">
        <g
           transform="matrix(0.36909432,0,0,0.36909432,-14.078686,164.67982)"
           id="g1405">
          <g
             id="g1204"
             transform="matrix(0.36573074,0,0,0.36573074,311.40823,223.03297)">
            <g
               id="g1178">
              <g
                 id="g1176">
                <path
                   id="path1174"
                   fill="#eb7d16"
                   data-old_color="#000000"
                   class="active-path"
                   data-original="#000000"
                   d="M 63.6,233.6 H 18.8 c -9.6,0 -18.4,8 -18.4,18.4 v 100 c 0,9.6 8,18.4 18.4,18.4 h 44.8 c 9.6,0 18.4,-8 18.4,-18.4 V 252 c 0,-9.6 -8,-18.4 -18.4,-18.4 z M 65.2,352 c 0,0.8 -0.8,2.4 -2.4,2.4 H 18 c -0.8,0 -2.4,-0.8 -2.4,-2.4 V 252 c 0,-0.8 0.8,-2.4 2.4,-2.4 h 44.8 c 1.6,0 2.4,0.8 2.4,2.4 z" />
              </g>
            </g>
            <g
               id="g1184">
              <g
                 id="g1182">
                <path
                   id="path1180"
                   fill="#eb7d16"
                   data-old_color="#000000"
                   class="active-path"
                   data-original="#000000"
                   d="m 159.6,127.2 h -44.8 v 0 c -9.6,0 -18.4,8 -18.4,18.4 v 205.6 c 0,9.6 8,18.4 18.4,18.4 h 44.8 c 9.6,0 18.4,-8 18.4,-18.4 V 145.6 c 0,-9.6 -8,-18.4 -18.4,-18.4 z m 1.6,224 c 0,0.8 -0.8,2.4 -2.4,2.4 H 114 c -0.8,0 -2.4,-0.8 -2.4,-2.4 V 145.6 c 0,-0.8 0.8,-2.4 2.4,-2.4 h 44.8 c 1.6,0 2.4,0.8 2.4,2.4 z" />
              </g>
            </g>
            <g
               id="g1190">
              <g
                 id="g1188">
                <path
                   id="path1186"
                   fill="#eb7d16"
                   data-old_color="#000000"
                   class="active-path"
                   data-original="#000000"
                   d="m 255.6,180 h -44.8 v 0.8 c -9.6,0 -18.4,8 -18.4,18.4 V 352 c 0,9.6 8,18.4 18.4,18.4 h 44.8 c 9.6,0 18.4,-8 18.4,-18.4 V 198.4 c 0,-9.6 -8,-18.4 -18.4,-18.4 z m 2.4,171.2 c 0,0.8 -0.8,2.4 -2.4,2.4 h -44.8 c -0.8,0 -2.4,-0.8 -2.4,-2.4 V 198.4 c 0,-0.8 0.8,-2.4 2.4,-2.4 h 44.8 c 1.6,0.8 2.4,1.6 2.4,2.4 z" />
              </g>
            </g>
            <g
               id="g1196">
              <g
                 id="g1194">
                <path
                   id="path1192"
                   fill="#eb7d16"
                   data-old_color="#000000"
                   class="active-path"
                   data-original="#000000"
                   d="m 351.6,83.2 h -44.8 c -9.6,0 -18.4,8 -18.4,18.4 v 249.6 c 0.8,10.4 8.8,18.4 18.4,18.4 h 44.8 c 9.6,0 18.4,-8 18.4,-18.4 V 101.6 C 370,92 362,83.2 351.6,83.2 Z m 3.2,268 c 0,0.8 -0.8,2.4 -2.4,2.4 h -44.8 c -0.8,0 -2.4,-0.8 -2.4,-2.4 V 101.6 c 0,-0.8 0.8,-2.4 2.4,-2.4 h 44.8 c 0.8,0 2.4,0.8 2.4,2.4 z" />
              </g>
            </g>
            <g
               id="g1202">
              <g
                 id="g1200">
                <path
                   id="path1198"
                   fill="#eb7d16"
                   data-old_color="#000000"
                   class="active-path"
                   data-original="#000000"
                   d="M 329.2,0 C 318.8,0 310,8.8 310,19.2 c 0,2.4 0.8,4 0.8,6.4 l -69.6,64.8 c -2.4,-1.6 -5.6,-1.6 -8,-1.6 -4.8,0 -8.8,1.6 -12,4 L 155.6,57.6 c 0,-0.8 0,-0.8 0,-1.6 0,-10.4 -8.8,-19.2 -19.2,-19.2 -10.4,0 -19.2,8.8 -19.2,19.2 0,3.2 0.8,5.6 1.6,8 l -73.6,88 c -1.6,-0.8 -3.2,-0.8 -4.8,-0.8 -10.4,0 -19.2,8.8 -19.2,19.2 0,10.4 8.8,19.2 19.2,19.2 10.4,0 19.2,-8.8 19.2,-19.2 0,-3.2 -0.8,-5.6 -1.6,-8 l 73.6,-88 c 1.6,0.8 3.2,0.8 4.8,0.8 4.8,0 8.8,-1.6 12,-4 l 65.6,35.2 c 0,0.8 0,0.8 0,1.6 0,10.4 8.8,19.2 19.2,19.2 10.4,0 19.2,-8.8 19.2,-19.2 0,-2.4 -0.8,-4 -0.8,-6.4 L 322,36.8 c 2.4,1.6 4.8,1.6 7.2,1.6 10.4,0 19.2,-8.8 19.2,-19.2 C 348.4,8.8 339.6,0 329.2,0 Z" />
              </g>
            </g>
          </g>
        </g>
        <g
           transform="matrix(0.36909432,0,0,0.36909432,198.54458,166.72745)"
           id="g1455">
          <g
             id="g1269"
             transform="matrix(5.6444444,0,0,5.6444444,-106.84159,217.48525)">
            <g
               id="g1231">
              <path
                 id="path1229"
                 fill="#69e781"
                 data-old_color="#000000"
                 class="active-path"
                 data-original="#000000"
                 d="m 13.5,24 h -3 C 9.8,24 9,23.4 9,22.2 V 20.1 C 9,19.1 8.5,18.2 7.7,17.5 5.9,16.1 5,14.1 5,11.9 5.1,8.1 8.2,5.1 11.9,5 c 1.9,0 3.7,0.7 5,2 1.3,1.3 2.1,3.1 2.1,5 0,2.1 -0.9,4.1 -2.6,5.4 -0.9,0.7 -1.4,1.8 -1.4,2.8 v 2.3 C 15,23.3 14.3,24 13.5,24 Z M 12,6 c -3.2,0 -5.9,2.7 -6,5.9 0,1.9 0.8,3.7 2.3,4.8 1.1,0.9 1.7,2.1 1.7,3.4 v 2.1 c 0,0.2 0,0.8 0.5,0.8 h 3 c 0.3,0 0.5,-0.2 0.5,-0.5 v -2.3 c 0,-1.3 0.7,-2.7 1.8,-3.6 C 17.2,15.5 18,13.8 18,12 18,10.4 17.4,8.9 16.2,7.7 15.1,6.6 13.6,6 12,6 Z" />
            </g>
            <g
               id="g1235">
              <path
                 id="path1233"
                 fill="#69e781"
                 data-old_color="#000000"
                 class="active-path"
                 data-original="#000000"
                 d="m 14.5,21 h -5 C 9.2,21 9,20.8 9,20.5 9,20.2 9.2,20 9.5,20 h 5 c 0.3,0 0.5,0.2 0.5,0.5 0,0.3 -0.2,0.5 -0.5,0.5 z" />
            </g>
            <g
               id="g1239">
              <path
                 id="path1237"
                 fill="#69e781"
                 data-old_color="#000000"
                 class="active-path"
                 data-original="#000000"
                 d="M 12,3 C 11.7,3 11.5,2.8 11.5,2.5 v -2 C 11.5,0.2 11.7,0 12,0 c 0.3,0 0.5,0.2 0.5,0.5 v 2 C 12.5,2.8 12.3,3 12,3 Z" />
            </g>
            <g
               id="g1243">
              <path
                 id="path1241"
                 fill="#69e781"
                 data-old_color="#000000"
                 class="active-path"
                 data-original="#000000"
                 d="m 18.7,5.8 c -0.1,0 -0.3,0 -0.4,-0.1 -0.2,-0.2 -0.2,-0.5 0,-0.7 l 1.4,-1.4 c 0.2,-0.2 0.5,-0.2 0.7,0 0.2,0.2 0.2,0.5 0,0.7 L 19,5.7 c 0,0 -0.2,0.1 -0.3,0.1 z" />
            </g>
            <g
               id="g1247">
              <path
                 id="path1245"
                 fill="#69e781"
                 data-old_color="#000000"
                 class="active-path"
                 data-original="#000000"
                 d="m 23.5,12.5 h -2 C 21.2,12.5 21,12.3 21,12 c 0,-0.3 0.2,-0.5 0.5,-0.5 h 2 c 0.3,0 0.5,0.2 0.5,0.5 0,0.3 -0.2,0.5 -0.5,0.5 z" />
            </g>
            <g
               id="g1251">
              <path
                 id="path1249"
                 fill="#69e781"
                 data-old_color="#000000"
                 class="active-path"
                 data-original="#000000"
                 d="m 20.1,20.6 c -0.1,0 -0.3,0 -0.4,-0.1 l -1.4,-1.4 c -0.2,-0.2 -0.2,-0.5 0,-0.7 0.2,-0.2 0.5,-0.2 0.7,0 l 1.4,1.4 c 0.2,0.2 0.2,0.5 0,0.7 0,0.1 -0.1,0.1 -0.3,0.1 z" />
            </g>
            <g
               id="g1255">
              <path
                 id="path1253"
                 fill="#69e781"
                 data-old_color="#000000"
                 class="active-path"
                 data-original="#000000"
                 d="m 3.9,20.6 c -0.1,0 -0.3,0 -0.4,-0.1 -0.2,-0.2 -0.2,-0.5 0,-0.7 l 1.4,-1.4 c 0.2,-0.2 0.5,-0.2 0.7,0 0.2,0.2 0.2,0.5 0,0.7 L 4.2,20.5 C 4.1,20.6 4,20.6 3.9,20.6 Z" />
            </g>
            <g
               id="g1259">
              <path
                 id="path1257"
                 fill="#69e781"
                 data-old_color="#000000"
                 class="active-path"
                 data-original="#000000"
                 d="m 2.5,12.5 h -2 C 0.2,12.5 0,12.3 0,12 0,11.7 0.2,11.5 0.5,11.5 h 2 c 0.3,0 0.5,0.2 0.5,0.5 0,0.3 -0.2,0.5 -0.5,0.5 z" />
            </g>
            <g
               id="g1263">
              <path
                 id="path1261"
                 fill="#69e781"
                 data-old_color="#000000"
                 class="active-path"
                 data-original="#000000"
                 d="M 5.3,5.8 C 5.2,5.8 5,5.8 4.9,5.7 L 3.5,4.2 C 3.3,4 3.3,3.7 3.5,3.5 3.7,3.3 4,3.3 4.2,3.5 L 5.6,4.9 C 5.8,5.1 5.8,5.4 5.6,5.6 5.5,5.7 5.4,5.8 5.3,5.8 Z" />
            </g>
            <g
               id="g1267">
              <path
                 id="path1265"
                 fill="#69e781"
                 data-old_color="#000000"
                 class="active-path"
                 data-original="#000000"
                 d="m 16,12.5 c -0.3,0 -0.5,-0.2 -0.5,-0.5 0,-1.9 -1.6,-3.5 -3.5,-3.5 -0.3,0 -0.5,-0.2 -0.5,-0.5 0,-0.3 0.2,-0.5 0.5,-0.5 2.5,0 4.5,2 4.5,4.5 0,0.3 -0.2,0.5 -0.5,0.5 z" />
            </g>
          </g>
        </g>
        <g
           transform="matrix(0.36909387,0,0,0.36909387,35.788694,164.6399)"
           id="g1432">
          <g
             id="g1335"
             transform="matrix(0.28732402,0,0,0.28732402,35.059795,223.14111)">
            <g
               id="g1303">
              <g
                 id="g1301">
                <path
                   id="path1299"
                   fill="#86d4ff"
                   data-old_color="#000000"
                   class="active-path"
                   data-original="#000000"
                   d="m 190.024,105.178 c -17.673,0 -32,14.327 -32,32 0,17.673 14.327,32 32,32 17.673,0 32,-14.327 32,-32 0,-17.673 -14.327,-32 -32,-32 z m 0,48 c -8.837,0 -16,-7.163 -16,-16 0.044,-8.805 7.195,-15.92 16,-15.92 v -0.08 c 8.837,0 16,7.163 16,16 0,8.837 -7.163,16 -16,16 z" />
              </g>
            </g>
            <g
               id="g1309">
              <g
                 id="g1307">
                <path
                   id="path1305"
                   fill="#86d4ff"
                   data-old_color="#000000"
                   class="active-path"
                   data-original="#000000"
                   d="m 281.544,105.178 c -17.673,0 -32,14.327 -32,32 0,17.673 14.327,32 32,32 17.673,0 32,-14.327 32,-32 0,-17.673 -14.327,-32 -32,-32 z m 0,48 c -8.837,0 -16,-7.163 -16,-16 0.044,-8.805 7.195,-15.92 16,-15.92 v -0.08 c 8.837,0 16,7.163 16,16 0,8.837 -7.163,16 -16,16 z" />
              </g>
            </g>
            <g
               id="g1315">
              <g
                 id="g1313">
                <path
                   id="path1311"
                   fill="#86d4ff"
                   data-old_color="#000000"
                   class="active-path"
                   data-original="#000000"
                   d="m 379.097,142.007 c -3.452,-18.993 -18.742,-33.603 -37.872,-36.189 -5.28,-19.52 -20.48,-36.16 -51.04,-36.16 h -46.4 v -17.6 c 14.034,-4.418 21.829,-19.377 17.41,-33.41 -4.418,-14.034 -19.377,-21.829 -33.41,-17.41 -14.034,4.418 -21.829,19.377 -17.41,33.41 2.613,8.298 9.112,14.798 17.41,17.41 v 17.2 h -46.32 c -21.6,0 -44.32,9.92 -51.2,36.16 -24.381,3.347 -41.433,25.825 -38.086,50.206 2.624,19.117 17.255,34.372 36.246,37.794 l -0.08,0.4 c 2.4,35.12 28.48,48 53.04,48 h 108.8 c 36.56,0 51.2,-24 53.04,-48 24.212,-4.402 40.273,-27.598 35.872,-51.811 z m -250.993,35.811 c -15.11,-4.368 -23.819,-20.158 -19.452,-35.268 2.715,-9.393 10.059,-16.737 19.452,-19.452 z m 97.04,-150.72 c 0,-5.876 4.764,-10.64 10.64,-10.64 5.876,0 10.64,4.764 10.64,10.64 0,5.876 -4.764,10.64 -10.64,10.64 -5.876,0 -10.64,-4.764 -10.64,-10.64 z m 102.32,160.96 c 0,13.92 -4.88,37.28 -37.28,37.28 h -108.72 c -13.92,0 -37.28,-4.88 -37.28,-37.28 l -0.08,-64.96 c 0,-32.48 23.36,-37.28 37.28,-37.28 h 108.8 c 32.48,0 37.28,23.36 37.28,37.28 z m 15.68,-10.8 v -54.72 c 12.196,3.52 20.604,14.667 20.64,27.36 -0.036,12.693 -8.444,23.84 -20.64,27.36 z" />
              </g>
            </g>
            <g
               id="g1321">
              <g
                 id="g1319">
                <path
                   id="path1317"
                   fill="#86d4ff"
                   data-old_color="#000000"
                   class="active-path"
                   data-original="#000000"
                   d="m 281.544,190.938 h -91.52 c -4.418,0 -8,3.582 -8,8 0,4.418 3.582,8 8,8 h 91.52 c 4.418,0 8,-3.582 8,-8 0,-4.418 -3.582,-8 -8,-8 z" />
              </g>
            </g>
            <g
               id="g1327">
              <g
                 id="g1325">
                <path
                   id="path1323"
                   fill="#86d4ff"
                   data-old_color="#000000"
                   class="active-path"
                   data-original="#000000"
                   d="m 413.784,256.778 v 0 c -0.153,-17.142 -14.173,-30.915 -31.315,-30.762 -14.344,0.128 -26.732,10.067 -29.965,24.042 l -21.36,4.16 h -190.72 l -21.36,-4.16 C 115.404,233.31 98.861,222.7 82.113,226.36 c -16.748,3.66 -27.358,20.203 -23.698,36.951 2.488,11.384 11.141,20.416 22.409,23.388 v 59.76 c -13.533,3.61 -22.972,15.834 -23.04,29.84 v 14.16 c 0,4.418 3.582,8 8,8 4.418,0 8,-3.582 8,-8 v -14.24 c 0,-8.306 6.734,-15.04 15.04,-15.04 8.306,0 15.04,6.734 15.04,15.04 v 14.24 c 0,4.418 3.582,8 8,8 4.418,0 8,-3.582 8,-8 v -14.24 c -0.068,-14.006 -9.507,-26.23 -23.04,-29.84 v -59.76 c 10.163,-2.738 18.239,-10.453 21.44,-20.48 l 13.36,2.64 v 98.72 c 0.016,14.473 3.068,28.781 8.96,42 v 0.72 c 23.619,52.357 85.21,75.653 137.566,52.034 23.106,-10.424 41.61,-28.927 52.034,-52.034 l 0.4,-0.88 c 5.955,-13.151 9.089,-27.404 9.2,-41.84 v -98.72 l 13.36,-2.64 c 3.201,10.027 11.277,17.742 21.44,20.48 v 59.76 c -13.533,3.61 -22.972,15.834 -23.04,29.84 v 14.24 c 0,4.418 3.582,8 8,8 4.418,0 8,-3.582 8,-8 v -14.24 c 0.008,-8.306 6.748,-15.034 15.054,-15.026 8.295,0.008 15.018,6.731 15.026,15.026 v 14.24 c 0,4.418 3.582,8 8,8 4.418,0 8,-3.582 8,-8 v -14.24 c -0.068,-14.006 -9.507,-26.23 -23.04,-29.84 v -59.76 c 13.596,-3.55 23.112,-15.79 23.2,-29.841 z m -324.96,15.04 c -8.306,0 -15.04,-6.734 -15.04,-15.04 0,-8.306 6.734,-15.04 15.04,-15.04 8.306,0 15.04,6.734 15.04,15.04 0,8.306 -6.734,15.04 -15.04,15.04 z m 146.96,183.76 c -30.139,-10e-4 -58.182,-15.425 -74.32,-40.88 h 148.64 c -16.138,25.454 -44.181,40.879 -74.32,40.88 z m 88,-88 c -0.039,10.668 -2.018,21.24 -5.84,31.2 h -164.48 c -3.822,-9.96 -5.801,-20.532 -5.84,-31.2 v -97.36 h 176.16 z m 59.043,-95.762 c -0.028,0 -0.055,0.001 -0.083,0.001 l -0.16,-0.24 c -8.306,0 -15.04,-6.734 -15.04,-15.04 0,-8.306 6.734,-15.04 15.04,-15.04 8.306,0 15.04,6.734 15.04,15.04 0.133,8.306 -6.492,15.146 -14.797,15.279 z" />
              </g>
            </g>
            <g
               id="g1333">
              <g
                 id="g1331">
                <path
                   id="path1329"
                   fill="#86d4ff"
                   data-old_color="#000000"
                   class="active-path"
                   data-original="#000000"
                   d="m 264.085,326.679 c -1.465,-1.322 -3.367,-2.056 -5.341,-2.061 h -24 l 29.44,-30.24 c 2.83,-3.393 2.375,-8.437 -1.018,-11.268 -3.034,-2.531 -7.461,-2.468 -10.422,0.148 l -42.64,43.84 c -3.093,3.155 -3.042,8.22 0.113,11.313 1.507,1.477 3.537,2.299 5.647,2.287 h 24.64 l -30.32,33.76 c -2.952,3.272 -2.702,8.316 0.56,11.28 v 0 c 3.272,2.952 8.316,2.702 11.28,-0.56 l 42.64,-47.2 c 2.96,-3.28 2.701,-8.339 -0.579,-11.299 z" />
              </g>
            </g>
          </g>
        </g>
        <g
           transform="matrix(0.39868416,0,0,0.39868416,-67.575151,153.84543)"
           id="g1411">
          <g
             id="g1369"
             transform="matrix(1.0583333,0,0,1.0583333,160.37065,228.62803)">
            <path
               d="M 64,50.25 A 13.75,13.75 0 1 0 77.75,64 13.765,13.765 0 0 0 64,50.25 Z m 0,24 A 10.25,10.25 0 1 1 74.25,64 10.261,10.261 0 0 1 64,74.25 Z"
               data-original="#000000"
               class="active-path"
               data-old_color="#000000"
               fill="#202095"
               id="path1363" />
            <path
               d="M 70,62.25 A 1.75,1.75 0 0 0 68.25,64 4.274,4.274 0 0 1 66.131,67.676 1.7501961,1.7501961 0 1 0 67.894,70.7 7.785,7.785 0 0 0 71.75,64 1.75,1.75 0 0 0 70,62.25 Z"
               data-original="#000000"
               class="active-path"
               data-old_color="#000000"
               fill="#202095"
               id="path1365" />
            <path
               d="m 109.23,59.91 a 7.8,7.8 0 0 0 1.954,0.256 7.751,7.751 0 0 0 5.48,-13.228 c -0.127,-0.126 -0.262,-0.24 -0.4,-0.357 1.3,-4.714 1,-8.82 -0.953,-12.206 -4.2,-7.28 -15.229,-9.665 -30.362,-6.652 C 79.976,13.111 72.392,4.75 64,4.75 c -8.392,0 -15.975,8.36 -20.953,22.974 -15.136,-3.015 -26.162,-0.629 -30.361,6.65 -1.893,3.27 -2.225,7.379 -1.018,11.94 a 7.75,7.75 0 0 0 7.039,13.515 c 1.038,1.381 2.175,2.778 3.4,4.177 -10.169,11.604 -13.618,22.347 -9.422,29.619 3.015,5.227 9.541,7.938 18.583,7.938 a 61.159,61.159 0 0 0 11.777,-1.292 c 4.977,14.616 12.562,22.979 20.955,22.979 3.792,0 7.532,-1.778 10.893,-5.124 a 7.746,7.746 0 0 0 8.587,-12.571 c -0.126,-0.127 -0.261,-0.242 -0.394,-0.358 0.655,-1.549 1.282,-3.2 1.874,-4.926 a 61.023,61.023 0 0 0 11.772,1.292 c 9.041,0 15.568,-2.712 18.583,-7.938 4.2,-7.272 0.747,-18.015 -9.42,-29.618 1.18,-1.347 2.294,-2.717 3.335,-4.097 z m 4.958,-4.486 a 4.255,4.255 0 0 1 -6.009,0 v 0 a 4.248,4.248 0 1 1 6.01,0 z m -1.905,-19.3 c 1.369,2.377 1.633,5.332 0.809,8.8 A 7.745,7.745 0 0 0 105.7,57.9 c 0.126,0.127 0.261,0.241 0.394,0.358 q -1.218,1.586 -2.572,3.148 A 105.745,105.745 0 0 0 89.56,49.245 107.039,107.039 0 0 0 86.02,31.076 c 13.188,-2.55 22.941,-0.711 26.263,5.047 z M 82.589,96.182 A 100.254,100.254 0 0 1 68.311,91.541 c 2.985,-1.443 5.958,-3.011 8.875,-4.695 2.94,-1.7 5.785,-3.492 8.5,-5.347 a 100.2,100.2 0 0 1 -3.097,14.683 z m -37.178,0 a 100.179,100.179 0 0 1 -3.1,-14.683 c 2.722,1.855 5.566,3.649 8.505,5.347 2.914,1.684 5.884,3.254 8.874,4.695 a 100.265,100.265 0 0 1 -14.279,4.641 z m 0,-64.364 a 100.213,100.213 0 0 1 14.278,4.641 c -2.986,1.443 -5.958,3.011 -8.875,4.7 -2.94,1.7 -5.785,3.492 -8.505,5.347 A 100.151,100.151 0 0 1 45.411,31.818 Z M 38,74.034 A 98.792,98.792 0 0 1 26.838,64 98.907,98.907 0 0 1 38,53.966 c -0.247,3.3 -0.378,6.663 -0.378,10.034 0,3.371 0.129,6.73 0.378,10.034 z m 14.567,9.78 C 48.779,81.627 45.154,79.279 41.76,76.837 41.342,72.646 41.122,68.337 41.122,64 c 0,-4.337 0.22,-8.645 0.638,-12.837 3.391,-2.44 7.017,-4.789 10.807,-6.977 3.75,-2.167 7.594,-4.137 11.434,-5.878 3.843,1.742 7.686,3.712 11.436,5.878 3.788,2.187 7.413,4.535 10.807,6.977 0.418,4.191 0.638,8.5 0.638,12.837 0,4.337 -0.22,8.645 -0.638,12.837 -3.391,2.44 -7.017,4.789 -10.807,6.977 -3.75,2.167 -7.594,4.137 -11.434,5.878 C 60.158,87.95 56.315,85.98 52.565,83.814 Z m 30.024,-52 a 100.179,100.179 0 0 1 3.1,14.683 C 82.969,44.642 80.125,42.848 77.191,41.15 74.27,39.47 71.3,37.9 68.31,36.459 A 100.265,100.265 0 0 1 82.589,31.818 Z M 90,53.966 A 98.792,98.792 0 0 1 101.162,64 98.907,98.907 0 0 1 90,74.034 C 90.247,70.734 90.378,67.371 90.378,64 90.378,60.629 90.249,57.27 90,53.966 Z M 64,8.25 c 6.638,0 13.113,7.529 17.515,20.225 a 107.329,107.329 0 0 0 -17.516,6 107.245,107.245 0 0 0 -17.514,-6 C 50.888,15.778 57.362,8.25 64,8.25 Z M 13.429,55.424 v 0 a 4.256,4.256 0 1 1 3.006,1.242 4.219,4.219 0 0 1 -3.007,-1.242 z m 8.485,-8.486 a 7.75,7.75 0 0 0 -7.023,-2.109 c -0.808,-3.426 -0.538,-6.35 0.825,-8.7 3.323,-5.761 13.076,-7.6 26.264,-5.049 A 107.109,107.109 0 0 0 38.439,49.25 105.667,105.667 0 0 0 24.476,61.4 q -1.461,-1.686 -2.73,-3.352 c 0.055,-0.052 0.114,-0.1 0.168,-0.153 a 7.757,7.757 0 0 0 0,-10.96 z m -6.2,44.937 C 12.4,86.123 15.682,76.754 24.481,66.6 a 105.714,105.714 0 0 0 13.959,12.155 107.039,107.039 0 0 0 3.54,18.169 c -13.189,2.548 -22.942,0.71 -26.264,-5.049 z m 65.291,22.165 a 4.257,4.257 0 1 1 1.242,-3.006 4.256,4.256 0 0 1 -1.242,3.006 z m -3,-10.753 a 7.747,7.747 0 0 0 -5.934,12.728 c -2.6,2.477 -5.308,3.735 -8.066,3.735 -6.638,0 -13.113,-7.529 -17.515,-20.225 a 107.329,107.329 0 0 0 17.516,-6 107.259,107.259 0 0 0 17.518,6 c -0.49,1.405 -1,2.75 -1.534,4.025 A 7.773,7.773 0 0 0 78,103.287 Z m 34.284,-11.412 c -3.323,5.76 -13.076,7.6 -26.264,5.049 A 107.109,107.109 0 0 0 89.566,78.754 105.662,105.662 0 0 0 103.519,66.6 c 8.799,10.154 12.081,19.523 8.765,25.275 z"
               data-original="#000000"
               class="active-path"
               data-old_color="#000000"
               fill="#202095"
               id="path1367" />
          </g>
        </g>
      </g>
      <text
         xml:space="preserve"
         id="text833"
         style="font-style:normal;font-weight:normal;font-size:10.5833px;line-height:1.25;font-family:sans-serif;white-space:pre;shape-inside:url(#rect835);display:inline;fill:#000000;fill-opacity:1;stroke:none;"
         transform="matrix(7.4409837,0,0,7.4409837,-314.62827,-222.48412)"><tspan
           x="29.8125"
           y="61.866848"><tspan
             style="font-style:normal;font-variant:normal;font-weight:normal;font-stretch:normal;font-family:'Varela Round';-inkscape-font-specification:'Varela Round'">FeCEAP</tspan></tspan></text>
    </g>
  </g>
</svg>
